<svg xmlns="http://www.w3.org/2000/svg" width="11" height="16" fill="none" viewBox="0 0 11 16">
  <path fill="#C86C00" fill-rule="evenodd" d="M5.5 6.667c-.759 0-1.375-.598-1.375-1.334C4.125 4.597 4.741 4 5.5 4s1.375.597 1.375 1.333S6.259 6.667 5.5 6.667zm0-3.334c-1.14 0-2.063.896-2.063 2 0 1.105.924 2 2.063 2 1.14 0 2.063-.895 2.063-2 0-1.104-.924-2-2.063-2zM.687 5.068C.688 2.723 2.938.667 5.5.667c2.564 0 4.813 2.056 4.813 4.401 0 2.303-1.763 5.029-4.813 9.685C2.414 10.037.687 7.37.687 5.068zM5.5 0C2.614 0 0 2.269 0 5.068 0 7.867 2.385 11.208 5.5 16 8.615 11.208 11 7.867 11 5.068 11 2.268 8.387 0 5.5 0" clip-rule="evenodd"/>
</svg>
